<?xml version="1.0" encoding="UTF-8"?>
<svg version="1.1" xmlns="http://www.w3.org/2000/svg" width="1024" height="1024">
<path d="M0 0 C337.92 0 675.84 0 1024 0 C1024 337.92 1024 675.84 1024 1024 C686.08 1024 348.16 1024 0 1024 C0 686.08 0 348.16 0 0 Z " fill="#FEFEFE" transform="translate(0,0)"/>
<path d="M0 0 C20.79 0 41.58 0 63 0 C66.02313364 6.04626729 68.91103689 11.9031585 71.42578125 18.13671875 C71.73000504 18.88135376 72.03422882 19.62598877 72.34767151 20.39318848 C73.33954865 22.82317549 74.32599682 25.25532698 75.3125 27.6875 C76.01993125 29.42310167 76.72778486 31.15853123 77.43603516 32.89379883 C78.90282163 36.48843863 80.36780825 40.08380401 81.83154297 43.6796875 C84.83795015 51.06122636 87.8676783 58.43316809 90.89654541 65.80551147 C95.41156242 76.79704733 99.91721951 87.79238887 104.41015625 98.79296875 C112.07681722 117.561703 119.77359879 136.31674956 127.55499268 155.03823853 C133.39783819 169.09801788 139.17208976 183.18489874 144.92202759 197.28289795 C149.35354741 208.14413956 153.81749333 218.99100621 158.3359375 229.81640625 C158.78331772 230.8882869 159.23069794 231.96016754 159.69163513 233.06452942 C161.85332951 238.24074923 164.01873782 243.41538448 166.1887207 248.58813477 C166.9839019 250.48843766 167.77906859 252.38874662 168.57421875 254.2890625 C169.09047318 255.51496849 169.09047318 255.51496849 169.61715698 256.76564026 C173.2479615 265.45158928 176.5836607 274.21512751 180 283 C180.33 189.61 180.66 96.22 181 0 C218.434375 -0.12375 218.434375 -0.12375 256.625 -0.25 C264.44396973 -0.28641602 272.26293945 -0.32283203 280.31884766 -0.36035156 C290.0222168 -0.37841797 290.0222168 -0.37841797 294.59481812 -0.3817749 C297.72278693 -0.38543421 300.85047165 -0.400145 303.97836304 -0.42230225 C332.67159532 -0.61627092 360.48111257 0.99381866 388 10 C388.73347656 10.23976563 389.46695313 10.47953125 390.22265625 10.7265625 C410.55192811 17.54042526 428.74267597 28.04999602 445 42 C445.98419922 42.80050781 445.98419922 42.80050781 446.98828125 43.6171875 C465.59543124 58.88247685 478.21953599 82.14946101 484.75 105 C484.94875732 105.68674805 485.14751465 106.37349609 485.35229492 107.08105469 C495.02918341 142.86853601 488.58891158 181.14973425 470.83984375 213.15625 C455.91484728 239.10579038 429.01402529 261.35467039 401 272 C400.01 272 399.02 272 398 272 C398.90335083 273.24402588 398.90335083 273.24402588 399.82495117 274.51318359 C406.23930359 283.39274658 412.33459625 292.44749993 418.3125 301.625 C419.24090821 303.04579896 420.16954063 304.46645143 421.09838867 305.88696289 C423.34231372 309.32026468 425.5827598 312.75581811 427.82177734 316.19232178 C429.44170652 318.67768452 431.06471856 321.16103022 432.6875 323.64453125 C439.20135886 333.62696295 445.63131244 343.66221269 452.04882812 353.70678711 C457.71354167 362.56780298 463.43533603 371.3904979 469.1809082 380.19921875 C470.58789849 382.36550415 471.9894859 384.53493072 473.38745117 386.70703125 C480.91025269 398.38621575 488.60853199 409.94268575 496.3503418 421.47753906 C497.94776601 423.85871646 499.54241671 426.2417315 501.13671875 428.625 C501.62718185 429.35396484 502.11764496 430.08292969 502.62297058 430.83398438 C506 435.88670792 506 435.88670792 506 437 C494.19604709 437.41821856 482.39387105 437.73743596 470.58400249 437.93261909 C465.09882094 438.02633739 459.61872675 438.15324378 454.13647461 438.35791016 C448.83861363 438.55444033 443.5456201 438.66128493 438.2443943 438.70779037 C436.22916774 438.74089386 434.21419033 438.80555931 432.20105553 438.90314102 C419.38411071 439.49933469 419.38411071 439.49933469 414 437 C409.26645308 432.64582981 406.58599751 426.93059293 403.99604034 421.1368084 C402.66062494 418.27193765 400.98259308 415.69934783 399.20703125 413.08984375 C398.36881836 411.81367187 398.36881836 411.81367187 397.51367188 410.51171875 C396.6715918 409.23748047 396.6715918 409.23748047 395.8125 407.9375 C390.48712125 399.82577756 385.21856555 391.68084842 380 383.5 C374.87602425 375.47159092 369.7144819 367.46992391 364.5 359.5 C359.2855159 351.53007272 354.1242579 343.52823132 349 335.5 C343.21243542 326.43349552 337.37615662 317.40080593 331.48632812 308.40039062 C325.95919477 299.95350285 320.48424922 291.47565788 315 283 C297.18 282.67 279.36 282.34 261 282 C261 333.15 261 384.3 261 437 C226.35 437 191.7 437 156 437 C153.23625 429.86375 150.4725 422.7275 147.625 415.375 C142.37620543 401.8230821 137.11735122 388.27549578 131.80078125 374.75 C131.38838196 373.70002838 130.97598267 372.65005676 130.55108643 371.56826782 C128.57603735 366.54048177 126.5976323 361.51406091 124.61376953 356.48974609 C123.89733002 354.6676947 123.18101465 352.84559449 122.46484375 351.0234375 C122.14171707 350.20883057 121.81859039 349.39422363 121.485672 348.55493164 C121.18610092 347.79092041 120.88652985 347.02690918 120.57788086 346.23974609 C120.31986191 345.58589935 120.06184296 344.93205261 119.79600525 344.25839233 C118.72434897 341.21793459 117.88564359 338.09975255 117 335 C60.9 335 4.8 335 -53 335 C-53.99 338.3 -54.98 341.6 -56 345 C-56.68990231 346.95283969 -57.40373617 348.89759673 -58.15380859 350.828125 C-58.75184044 352.37578552 -58.75184044 352.37578552 -59.36195374 353.95471191 C-59.78649338 355.04215698 -60.21103302 356.12960205 -60.6484375 357.25 C-61.32264992 358.99089905 -61.32264992 358.99089905 -62.01048279 360.76696777 C-63.21429666 363.87374798 -64.42129761 366.9792512 -65.62982559 370.084198 C-66.87782892 373.29274522 -68.12189199 376.50281855 -69.3659668 379.71289062 C-69.7362212 380.66823322 -69.7362212 380.66823322 -70.1139555 381.64287567 C-70.61097534 382.92532747 -71.10797926 384.20778544 -71.60496712 385.49024963 C-72.34593307 387.40180451 -73.08740694 389.31316176 -73.82896423 391.2244873 C-76.67733688 398.56848667 -79.50761589 405.91903794 -82.30859375 413.28125 C-82.61815002 414.09456787 -82.9277063 414.90788574 -83.24664307 415.74584961 C-84.37489879 418.71234225 -85.50221729 421.67917243 -86.62445068 424.64794922 C-87.3582005 426.58902443 -88.09488415 428.52896307 -88.83203125 430.46875 C-89.43108276 432.05333008 -89.43108276 432.05333008 -90.04223633 433.66992188 C-91 436 -91 436 -92 437 C-94.67787973 437.09512944 -97.32988869 437.12555279 -100.00805664 437.11352539 C-100.84700974 437.11367142 -101.68596283 437.11381744 -102.55033875 437.1139679 C-105.33697044 437.1132685 -108.12353616 437.10547485 -110.91015625 437.09765625 C-112.83686791 437.09579217 -114.76358005 437.09436822 -116.69029236 437.09336853 C-121.77187397 437.08954259 -126.8534272 437.07971166 -131.93499756 437.06866455 C-137.11616634 437.05845206 -142.29733969 437.05387126 -147.47851562 437.04882812 C-157.65235625 437.03808946 -167.82617577 437.02101213 -178 437 C-171.59764218 419.80204973 -171.59764218 419.80204973 -168.546875 412.453125 C-168.24944397 411.73042419 -167.95201294 411.00772339 -167.64556885 410.26312256 C-167.01139138 408.72297729 -166.37610554 407.18328797 -165.73974609 405.64404297 C-164.34989006 402.28219583 -162.96569978 398.9180229 -161.58093262 395.55407715 C-160.84595762 393.76888072 -160.11068427 391.9838071 -159.37512207 390.19885254 C-155.61133978 381.06421983 -151.87169867 371.91976292 -148.13397217 362.77444458 C-142.46458204 348.90337336 -136.78627814 335.03600159 -131.09457397 321.17407227 C-118.10852634 289.54421139 -105.17324902 257.89385746 -92.375 226.1875 C-81.37409311 198.93407969 -70.2298879 171.73991664 -59.07006836 144.55126953 C-58.74924286 143.7696344 -58.42841736 142.98799927 -58.09786987 142.18267822 C-57.44875042 140.60124496 -56.7996008 139.01982408 -56.15042114 137.43841553 C-47.94139742 117.43938242 -39.77802316 97.42172801 -31.61279297 77.40478516 C-27.60904099 67.58988177 -23.60345709 57.77572603 -19.59777832 47.96160889 C-18.36032955 44.92968899 -17.12302315 41.89771103 -15.88574219 38.86572266 C-15.1074266 36.95865693 -14.3291065 35.05159303 -13.55078125 33.14453125 C-13.22328384 32.34190353 -12.89578644 31.53927582 -12.55836487 30.71232605 C-8.37874397 20.47222038 -4.18777538 10.23678427 0 0 Z " fill="#101010" transform="translate(343,284)"/>
<path d="M0 0 C11.4675 -0.061875 22.935 -0.12375 34.75 -0.1875 C40.11523926 -0.22846802 40.11523926 -0.22846802 45.58886719 -0.27026367 C74.61203769 -0.40029232 103.05145738 0.60883652 126.35546875 20.37890625 C139.20960712 33.11912315 145.09786267 50.01687139 146.25 67.875 C145.92573428 87.16881052 138.31806264 104.08673208 125.3125 118.1875 C106.1625966 136.47378031 81.39777864 137.1829054 56.54296875 137.09765625 C55.08679238 137.09618131 53.63061548 137.09516401 52.17443848 137.09460449 C46.84545077 137.0894156 41.51647449 137.07545472 36.1875 137.0625 C24.245625 137.041875 12.30375 137.02125 0 137 C0 91.79 0 46.58 0 0 Z " fill="#FEFEFE" transform="translate(604,357)"/>
<path d="M0 0 C2.0746436 2.0746436 2.65361353 3.30315931 3.68554688 5.99511719 C4.00841675 6.82936218 4.33128662 7.66360718 4.66394043 8.52313232 C5.01202759 9.43846741 5.36011475 10.35380249 5.71875 11.296875 C6.08842896 12.25587708 6.45810791 13.21487915 6.83898926 14.20294189 C7.64172715 16.28707066 8.44203949 18.3721349 9.24023438 20.45800781 C10.95014493 24.92630897 12.67144673 29.3901932 14.39208984 33.85437012 C15.28233711 36.16444217 16.17197784 38.47474804 17.06103516 40.78527832 C20.97084294 50.94271341 24.93048924 61.08013965 28.90631104 71.21188354 C31.11120999 76.83278241 33.31002391 82.45606417 35.50973511 88.07899475 C35.88260651 89.03213058 36.25547791 89.98526642 36.63964844 90.96728516 C37.02100952 91.94215881 37.40237061 92.91703247 37.79528809 93.92144775 C39.0740723 97.18928629 40.35393287 100.45670226 41.63378906 103.72412109 C43.87100962 109.43744234 46.10254978 115.15295665 48.33056641 120.86987305 C49.18878136 123.06947376 50.04878788 125.26837637 50.91064453 127.46655273 C52.10400381 130.51104124 53.29104258 133.55792071 54.4765625 136.60546875 C54.83497223 137.51564255 55.19338196 138.42581635 55.56265259 139.36357117 C55.88567352 140.19774063 56.20869446 141.0319101 56.54150391 141.89135742 C56.82474518 142.6164299 57.10798645 143.34150238 57.39981079 144.08854675 C58 146 58 146 58 149 C20.38 149 -17.24 149 -56 149 C-55.20213432 144.21280594 -54.29447909 140.78776959 -52.54296875 136.3671875 C-52.16140877 135.3956926 -52.16140877 135.3956926 -51.7721405 134.40457153 C-51.21303843 132.98259696 -50.65132556 131.56164683 -50.08734131 130.14160156 C-48.48978477 126.11753187 -46.9129441 122.08531778 -45.33203125 118.0546875 C-44.98781128 117.17874939 -44.64359131 116.30281128 -44.28894043 115.40032959 C-39.92639312 104.28922621 -35.6537878 93.14355665 -31.375 82 C-30.53375796 79.81043992 -29.69244895 77.62090558 -28.85107422 75.43139648 C-27.56385743 72.08164797 -26.27669425 68.73187897 -24.98980713 65.38200378 C-21.76632965 56.99156548 -18.5382518 48.60290473 -15.30859375 40.21484375 C-13.92446595 36.61923492 -12.54038443 33.02360829 -11.15631104 29.42797852 C-10.26422818 27.1108402 -9.37193667 24.79378219 -8.47943115 22.47680664 C-7.24218927 19.26471957 -6.00576921 16.05231731 -4.76953125 12.83984375 C-4.40073349 11.88303207 -4.03193573 10.9262204 -3.65196228 9.94041443 C-3.14712059 8.62787437 -3.14712059 8.62787437 -2.63208008 7.28881836 C-2.19295036 6.14841347 -2.19295036 6.14841347 -1.74494934 4.98497009 C-1.12636436 3.33670674 -0.5567243 1.6701729 0 0 Z " fill="#FDFDFD" transform="translate(374,399)"/>
<path d="M0 0 C20.12313417 -0.02335546 40.2462656 -0.04099221 60.36941051 -0.05181217 C69.71283102 -0.05696949 79.0562431 -0.06400148 88.3996582 -0.07543945 C96.54292202 -0.08540348 104.68617973 -0.09185754 112.82944947 -0.09408849 C117.14163455 -0.09539267 121.45380218 -0.09846007 125.76598167 -0.10573006 C129.82474023 -0.11251736 133.88347416 -0.11461142 137.94223785 -0.11310768 C139.43175452 -0.11338279 140.92127201 -0.11537184 142.41078377 -0.11920547 C144.44529245 -0.12418495 146.47981435 -0.12238772 148.514328 -0.12025452 C149.65274234 -0.12117631 150.79115667 -0.1220981 151.96406841 -0.12304783 C154.76042923 -0.00970992 157.28094945 0.36070846 160 1 C160 1.33 160 1.66 160 2 C107.86 2 55.72 2 2 2 C2 95.72 2 189.44 2 286 C0 284 0 284 -0.24839699 281.9305867 C-0.24763755 281.06862155 -0.24687811 280.2066564 -0.24609566 279.31857109 C-0.25007775 278.32530465 -0.25405985 277.33203821 -0.25816262 276.30867279 C-0.24942409 274.65986734 -0.24942409 274.65986734 -0.24050903 272.97775269 C-0.24221788 271.81631497 -0.24392673 270.65487725 -0.24568737 269.45824444 C-0.24842065 266.22465701 -0.24213752 262.99122831 -0.23213124 259.75765967 C-0.22351978 256.27436298 -0.22641526 252.79107412 -0.22793579 249.30776978 C-0.22898611 243.26946113 -0.22269423 237.2311956 -0.21146011 231.1928978 C-0.19522788 222.46246578 -0.18999945 213.73205469 -0.18748413 205.00160922 C-0.18310344 190.83813781 -0.16978422 176.67468939 -0.15087891 162.51123047 C-0.13252976 148.75016393 -0.11836854 134.98910364 -0.10986328 121.22802734 C-0.10907511 119.9563554 -0.10907511 119.9563554 -0.10827102 118.65899311 C-0.105661 114.40605818 -0.10313357 110.15312321 -0.10064721 105.90018821 C-0.07990308 70.60010908 -0.0446674 35.30005666 0 0 Z " fill="#000000" transform="translate(524,284)"/>
<path d="M0 0 C0.99 0 1.98 0 3 0 C3 0.66 3 1.32 3 2 C29.73 2 56.46 2 84 2 C84 2.33 84 2.66 84 3 C56.61 3 29.22 3 1 3 C0.67 2.01 0.34 1.02 0 0 Z " fill="#1B1B1B" transform="translate(166,717)"/>
<path d="M0 0 C5.75 1.875 5.75 1.875 8 3 C7.67 3.99 7.34 4.98 7 6 C3.535 4.02 3.535 4.02 0 2 C0 1.34 0 0.68 0 0 Z " fill="#1A1A19" transform="translate(750,302)"/>
<path d="M0 0 C4.455 0.99 4.455 0.99 9 2 C5 4 5 4 1.75 3.125 C0.8425 2.75375 -0.065 2.3825 -1 2 C-0.67 1.34 -0.34 0.68 0 0 Z " fill="#161616" transform="translate(731,295)"/>
</svg>
